<?xml version="1.0" encoding="UTF-8"?>
<svg id="Layer_1" data-name="Layer 1" xmlns="http://www.w3.org/2000/svg" xmlns:xlink="http://www.w3.org/1999/xlink" viewBox="0 0 933.22 643">
  <defs>
    <style>
      .cls-1 {
        fill: url(#linear-gradient);
      }

      .cls-1, .cls-2, .cls-3, .cls-4 {
        stroke-width: 0px;
      }

      .cls-2 {
        fill: url(#linear-gradient-2);
      }

      .cls-3 {
        fill: url(#linear-gradient-3);
      }

      .cls-4 {
        fill: url(#linear-gradient-4);
      }
    </style>
    <linearGradient id="linear-gradient" x1="560.46" y1="644" x2="560.46" y2="320.5" gradientTransform="translate(0 644) scale(1 -1)" gradientUnits="userSpaceOnUse">
      <stop offset="0" stop-color="#9b0cd8"/>
      <stop offset="1" stop-color="#571bc6"/>
    </linearGradient>
    <linearGradient id="linear-gradient-2" x1="372.75" y1="644" x2="372.75" y2="320.5" gradientTransform="translate(0 644) scale(1 -1)" gradientUnits="userSpaceOnUse">
      <stop offset="0" stop-color="#03b1ff"/>
      <stop offset="1" stop-color="#0078fe"/>
    </linearGradient>
    <linearGradient id="linear-gradient-3" x1="140.45" y1="644" x2="140.45" y2="1" gradientTransform="translate(0 644) scale(1 -1)" gradientUnits="userSpaceOnUse">
      <stop offset="0" stop-color="#006bfe"/>
      <stop offset="1" stop-color="#00c0ff"/>
    </linearGradient>
    <linearGradient id="linear-gradient-4" x1="792.77" y1="644" x2="792.77" y2="1" gradientTransform="translate(0 644) scale(1 -1)" gradientUnits="userSpaceOnUse">
      <stop offset="0" stop-color="#451fc2"/>
      <stop offset="1" stop-color="#920ed5"/>
    </linearGradient>
  </defs>
  <path class="cls-1" d="m560.46,0h185.05l-185.05,323.5h-185.05L560.46,0Z"/>
  <path class="cls-2" d="m372.75,0h-185.05l185.05,323.5h185.05L372.75,0Z"/>
  <path class="cls-3" d="m187.26,319.15l93.63-157.23L187.26,0,0,319.15l187.26,323.85,93.63-159.58-93.63-164.27Z"/>
  <path class="cls-4" d="m745.95,319.15l-93.63-157.23L745.95,0l187.26,319.15-187.26,323.85-93.63-159.58,93.63-164.27Z"/>
</svg>